<?xml version="1.0" encoding="utf-8" standalone="no"?>
<!DOCTYPE svg PUBLIC "-//W3C//DTD SVG 1.1//EN"
  "http://www.w3.org/Graphics/SVG/1.1/DTD/svg11.dtd">
<svg xmlns:xlink="http://www.w3.org/1999/xlink" width="720pt" height="273.6pt" viewBox="0 0 720 273.6" xmlns="http://www.w3.org/2000/svg" version="1.1">
 <metadata>
  <rdf:RDF xmlns:dc="http://purl.org/dc/elements/1.1/" xmlns:cc="http://creativecommons.org/ns#" xmlns:rdf="http://www.w3.org/1999/02/22-rdf-syntax-ns#">
   <cc:Work>
    <dc:type rdf:resource="http://purl.org/dc/dcmitype/StillImage"/>
    <dc:date>2026-06-13T19:03:10.071977</dc:date>
    <dc:format>image/svg+xml</dc:format>
    <dc:creator>
     <cc:Agent>
      <dc:title>Matplotlib v3.10.9, https://matplotlib.org/</dc:title>
     </cc:Agent>
    </dc:creator>
   </cc:Work>
  </rdf:RDF>
 </metadata>
 <defs>
  <style type="text/css">*{stroke-linejoin: round; stroke-linecap: butt}</style>
 </defs>
 <g id="figure_1">
  <g id="patch_1">
   <path d="M 0 273.6 
L 720 273.6 
L 720 0 
L 0 0 
z
" style="fill: #ffffff"/>
  </g>
  <g id="axes_1">
   <g id="patch_2">
    <path d="M 43.2 240.768 
L 220.281081 240.768 
L 220.281081 19.152 
L 43.2 19.152 
z
" style="fill: #ffffff"/>
   </g>
   <g id="PathCollection_1">
    <defs>
     <path id="m8fa34ceb85" d="M 0 3.162278 
C 0.838646 3.162278 1.643056 2.82908 2.236068 2.236068 
C 2.82908 1.643056 3.162278 0.838646 3.162278 0 
C 3.162278 -0.838646 2.82908 -1.643056 2.236068 -2.236068 
C 1.643056 -2.82908 0.838646 -3.162278 0 -3.162278 
C -0.838646 -3.162278 -1.643056 -2.82908 -2.236068 -2.236068 
C -2.82908 -1.643056 -3.162278 -0.838646 -3.162278 0 
C -3.162278 0.838646 -2.82908 1.643056 -2.236068 2.236068 
C -1.643056 2.82908 -0.838646 3.162278 0 3.162278 
z
" style="stroke: #ffffff; stroke-opacity: 0.7; stroke-width: 0.5"/>
    </defs>
    <g clip-path="url(#p0d3c2b1aa7)">
     <use xlink:href="#m8fa34ceb85" x="92.434111" y="190.400727" style="fill: #8ba684; fill-opacity: 0.7; stroke: #ffffff; stroke-opacity: 0.7; stroke-width: 0.5"/>
     <use xlink:href="#m8fa34ceb85" x="81.586489" y="150.106909" style="fill: #8ba684; fill-opacity: 0.7; stroke: #ffffff; stroke-opacity: 0.7; stroke-width: 0.5"/>
     <use xlink:href="#m8fa34ceb85" x="64.931228" y="119.886545" style="fill: #8ba684; fill-opacity: 0.7; stroke: #ffffff; stroke-opacity: 0.7; stroke-width: 0.5"/>
     <use xlink:href="#m8fa34ceb85" x="84.689602" y="69.519273" style="fill: #8ba684; fill-opacity: 0.7; stroke: #ffffff; stroke-opacity: 0.7; stroke-width: 0.5"/>
     <use xlink:href="#m8fa34ceb85" x="48.566093" y="109.813091" style="fill: #8ba684; fill-opacity: 0.7; stroke: #ffffff; stroke-opacity: 0.7; stroke-width: 0.5"/>
     <use xlink:href="#m8fa34ceb85" x="62.094294" y="170.253818" style="fill: #8ba684; fill-opacity: 0.7; stroke: #ffffff; stroke-opacity: 0.7; stroke-width: 0.5"/>
     <use xlink:href="#m8fa34ceb85" x="70.737771" y="180.327273" style="fill: #8ba684; fill-opacity: 0.7; stroke: #ffffff; stroke-opacity: 0.7; stroke-width: 0.5"/>
     <use xlink:href="#m8fa34ceb85" x="49.239346" y="129.96" style="fill: #8ba684; fill-opacity: 0.7; stroke: #ffffff; stroke-opacity: 0.7; stroke-width: 0.5"/>
     <use xlink:href="#m8fa34ceb85" x="61.732711" y="129.96" style="fill: #8ba684; fill-opacity: 0.7; stroke: #ffffff; stroke-opacity: 0.7; stroke-width: 0.5"/>
     <use xlink:href="#m8fa34ceb85" x="55.884299" y="190.400727" style="fill: #8ba684; fill-opacity: 0.7; stroke: #ffffff; stroke-opacity: 0.7; stroke-width: 0.5"/>
     <use xlink:href="#m8fa34ceb85" x="93.644607" y="99.739636" style="fill: #8ba684; fill-opacity: 0.7; stroke: #ffffff; stroke-opacity: 0.7; stroke-width: 0.5"/>
     <use xlink:href="#m8fa34ceb85" x="84.455741" y="99.739636" style="fill: #8ba684; fill-opacity: 0.7; stroke: #ffffff; stroke-opacity: 0.7; stroke-width: 0.5"/>
     <use xlink:href="#m8fa34ceb85" x="50.374447" y="140.033455" style="fill: #8ba684; fill-opacity: 0.7; stroke: #ffffff; stroke-opacity: 0.7; stroke-width: 0.5"/>
     <use xlink:href="#m8fa34ceb85" x="78.827074" y="129.96" style="fill: #8ba684; fill-opacity: 0.7; stroke: #ffffff; stroke-opacity: 0.7; stroke-width: 0.5"/>
     <use xlink:href="#m8fa34ceb85" x="48.566093" y="150.106909" style="fill: #8ba684; fill-opacity: 0.7; stroke: #ffffff; stroke-opacity: 0.7; stroke-width: 0.5"/>
     <use xlink:href="#m8fa34ceb85" x="79.829866" y="129.96" style="fill: #8ba684; fill-opacity: 0.7; stroke: #ffffff; stroke-opacity: 0.7; stroke-width: 0.5"/>
     <use xlink:href="#m8fa34ceb85" x="96.764023" y="160.180364" style="fill: #8ba684; fill-opacity: 0.7; stroke: #ffffff; stroke-opacity: 0.7; stroke-width: 0.5"/>
     <use xlink:href="#m8fa34ceb85" x="63.638071" y="160.180364" style="fill: #8ba684; fill-opacity: 0.7; stroke: #ffffff; stroke-opacity: 0.7; stroke-width: 0.5"/>
     <use xlink:href="#m8fa34ceb85" x="63.63022" y="150.106909" style="fill: #8ba684; fill-opacity: 0.7; stroke: #ffffff; stroke-opacity: 0.7; stroke-width: 0.5"/>
     <use xlink:href="#m8fa34ceb85" x="56.263129" y="140.033455" style="fill: #8ba684; fill-opacity: 0.7; stroke: #ffffff; stroke-opacity: 0.7; stroke-width: 0.5"/>
     <use xlink:href="#m8fa34ceb85" x="60.677314" y="180.327273" style="fill: #8ba684; fill-opacity: 0.7; stroke: #ffffff; stroke-opacity: 0.7; stroke-width: 0.5"/>
     <use xlink:href="#m8fa34ceb85" x="60.012237" y="129.96" style="fill: #8ba684; fill-opacity: 0.7; stroke: #ffffff; stroke-opacity: 0.7; stroke-width: 0.5"/>
     <use xlink:href="#m8fa34ceb85" x="69.882093" y="180.327273" style="fill: #8ba684; fill-opacity: 0.7; stroke: #ffffff; stroke-opacity: 0.7; stroke-width: 0.5"/>
     <use xlink:href="#m8fa34ceb85" x="74.929392" y="109.813091" style="fill: #8ba684; fill-opacity: 0.7; stroke: #ffffff; stroke-opacity: 0.7; stroke-width: 0.5"/>
     <use xlink:href="#m8fa34ceb85" x="77.545253" y="119.886545" style="fill: #8ba684; fill-opacity: 0.7; stroke: #ffffff; stroke-opacity: 0.7; stroke-width: 0.5"/>
     <use xlink:href="#m8fa34ceb85" x="79.737561" y="129.96" style="fill: #8ba684; fill-opacity: 0.7; stroke: #ffffff; stroke-opacity: 0.7; stroke-width: 0.5"/>
     <use xlink:href="#m8fa34ceb85" x="92.398876" y="180.327273" style="fill: #8ba684; fill-opacity: 0.7; stroke: #ffffff; stroke-opacity: 0.7; stroke-width: 0.5"/>
     <use xlink:href="#m8fa34ceb85" x="61.981327" y="129.96" style="fill: #8ba684; fill-opacity: 0.7; stroke: #ffffff; stroke-opacity: 0.7; stroke-width: 0.5"/>
     <use xlink:href="#m8fa34ceb85" x="82.392934" y="109.813091" style="fill: #8ba684; fill-opacity: 0.7; stroke: #ffffff; stroke-opacity: 0.7; stroke-width: 0.5"/>
     <use xlink:href="#m8fa34ceb85" x="71.719048" y="160.180364" style="fill: #8ba684; fill-opacity: 0.7; stroke: #ffffff; stroke-opacity: 0.7; stroke-width: 0.5"/>
     <use xlink:href="#m8fa34ceb85" x="48.566093" y="160.180364" style="fill: #8ba684; fill-opacity: 0.7; stroke: #ffffff; stroke-opacity: 0.7; stroke-width: 0.5"/>
     <use xlink:href="#m8fa34ceb85" x="53.503393" y="170.253818" style="fill: #8ba684; fill-opacity: 0.7; stroke: #ffffff; stroke-opacity: 0.7; stroke-width: 0.5"/>
     <use xlink:href="#m8fa34ceb85" x="48.566093" y="150.106909" style="fill: #8ba684; fill-opacity: 0.7; stroke: #ffffff; stroke-opacity: 0.7; stroke-width: 0.5"/>
    </g>
   </g>
   <g id="PathCollection_2">
    <defs>
     <path id="m95b66d2f2e" d="M 0 3.162278 
C 0.838646 3.162278 1.643056 2.82908 2.236068 2.236068 
C 2.82908 1.643056 3.162278 0.838646 3.162278 0 
C 3.162278 -0.838646 2.82908 -1.643056 2.236068 -2.236068 
C 1.643056 -2.82908 0.838646 -3.162278 0 -3.162278 
C -0.838646 -3.162278 -1.643056 -2.82908 -2.236068 -2.236068 
C -2.82908 -1.643056 -3.162278 -0.838646 -3.162278 0 
C -3.162278 0.838646 -2.82908 1.643056 -2.236068 2.236068 
C -1.643056 2.82908 -0.838646 3.162278 0 3.162278 
z
" style="stroke: #ffffff; stroke-opacity: 0.7; stroke-width: 0.5"/>
    </defs>
    <g clip-path="url(#p0d3c2b1aa7)">
     <use xlink:href="#m95b66d2f2e" x="141.531062" y="109.813091" style="fill: #e0a060; fill-opacity: 0.7; stroke: #ffffff; stroke-opacity: 0.7; stroke-width: 0.5"/>
     <use xlink:href="#m95b66d2f2e" x="201.837751" y="140.033455" style="fill: #e0a060; fill-opacity: 0.7; stroke: #ffffff; stroke-opacity: 0.7; stroke-width: 0.5"/>
     <use xlink:href="#m95b66d2f2e" x="116.705174" y="140.033455" style="fill: #e0a060; fill-opacity: 0.7; stroke: #ffffff; stroke-opacity: 0.7; stroke-width: 0.5"/>
     <use xlink:href="#m95b66d2f2e" x="104.161591" y="140.033455" style="fill: #e0a060; fill-opacity: 0.7; stroke: #ffffff; stroke-opacity: 0.7; stroke-width: 0.5"/>
     <use xlink:href="#m95b66d2f2e" x="104.405516" y="170.253818" style="fill: #e0a060; fill-opacity: 0.7; stroke: #ffffff; stroke-opacity: 0.7; stroke-width: 0.5"/>
     <use xlink:href="#m95b66d2f2e" x="110.606512" y="170.253818" style="fill: #e0a060; fill-opacity: 0.7; stroke: #ffffff; stroke-opacity: 0.7; stroke-width: 0.5"/>
     <use xlink:href="#m95b66d2f2e" x="131.88064" y="129.96" style="fill: #e0a060; fill-opacity: 0.7; stroke: #ffffff; stroke-opacity: 0.7; stroke-width: 0.5"/>
     <use xlink:href="#m95b66d2f2e" x="135.982669" y="190.400727" style="fill: #e0a060; fill-opacity: 0.7; stroke: #ffffff; stroke-opacity: 0.7; stroke-width: 0.5"/>
     <use xlink:href="#m95b66d2f2e" x="165.802961" y="109.813091" style="fill: #e0a060; fill-opacity: 0.7; stroke: #ffffff; stroke-opacity: 0.7; stroke-width: 0.5"/>
     <use xlink:href="#m95b66d2f2e" x="197.959717" y="109.813091" style="fill: #e0a060; fill-opacity: 0.7; stroke: #ffffff; stroke-opacity: 0.7; stroke-width: 0.5"/>
    </g>
   </g>
   <g id="matplotlib.axis_1">
    <g id="xtick_1">
     <g id="line2d_1">
      <defs>
       <path id="ma5f8a9f8be" d="M 0 0 
L 0 -3 
" style="stroke: #000000; stroke-width: 0.6"/>
      </defs>
      <g>
       <use xlink:href="#ma5f8a9f8be" x="48.566093" y="240.768" style="stroke: #000000; stroke-width: 0.6"/>
      </g>
     </g>
     <g id="text_1">
      <!-- 0.0 -->
      <g transform="translate(40.614531 251.866437) scale(0.1 -0.1)">
       <defs>
        <path id="DejaVuSans-30" d="M 2034 4250 
Q 1547 4250 1301 3770 
Q 1056 3291 1056 2328 
Q 1056 1369 1301 889 
Q 1547 409 2034 409 
Q 2525 409 2770 889 
Q 3016 1369 3016 2328 
Q 3016 3291 2770 3770 
Q 2525 4250 2034 4250 
z
M 2034 4750 
Q 2819 4750 3233 4129 
Q 3647 3509 3647 2328 
Q 3647 1150 3233 529 
Q 2819 -91 2034 -91 
Q 1250 -91 836 529 
Q 422 1150 422 2328 
Q 422 3509 836 4129 
Q 1250 4750 2034 4750 
z
" transform="scale(0.015625)"/>
        <path id="DejaVuSans-2e" d="M 684 794 
L 1344 794 
L 1344 0 
L 684 0 
L 684 794 
z
" transform="scale(0.015625)"/>
       </defs>
       <use xlink:href="#DejaVuSans-30"/>
       <use xlink:href="#DejaVuSans-2e" transform="translate(63.623047 0)"/>
       <use xlink:href="#DejaVuSans-30" transform="translate(95.410156 0)"/>
      </g>
     </g>
    </g>
    <g id="xtick_2">
     <g id="line2d_2">
      <g>
       <use xlink:href="#ma5f8a9f8be" x="102.227027" y="240.768" style="stroke: #000000; stroke-width: 0.6"/>
      </g>
     </g>
     <g id="text_2">
      <!-- 0.1 -->
      <g transform="translate(94.275465 251.866437) scale(0.1 -0.1)">
       <defs>
        <path id="DejaVuSans-31" d="M 794 531 
L 1825 531 
L 1825 4091 
L 703 3866 
L 703 4441 
L 1819 4666 
L 2450 4666 
L 2450 531 
L 3481 531 
L 3481 0 
L 794 0 
L 794 531 
z
" transform="scale(0.015625)"/>
       </defs>
       <use xlink:href="#DejaVuSans-30"/>
       <use xlink:href="#DejaVuSans-2e" transform="translate(63.623047 0)"/>
       <use xlink:href="#DejaVuSans-31" transform="translate(95.410156 0)"/>
      </g>
     </g>
    </g>
    <g id="xtick_3">
     <g id="line2d_3">
      <g>
       <use xlink:href="#ma5f8a9f8be" x="155.887961" y="240.768" style="stroke: #000000; stroke-width: 0.6"/>
      </g>
     </g>
     <g id="text_3">
      <!-- 0.2 -->
      <g transform="translate(147.936398 251.866437) scale(0.1 -0.1)">
       <defs>
        <path id="DejaVuSans-32" d="M 1228 531 
L 3431 531 
L 3431 0 
L 469 0 
L 469 531 
Q 828 903 1448 1529 
Q 2069 2156 2228 2338 
Q 2531 2678 2651 2914 
Q 2772 3150 2772 3378 
Q 2772 3750 2511 3984 
Q 2250 4219 1831 4219 
Q 1534 4219 1204 4116 
Q 875 4013 500 3803 
L 500 4441 
Q 881 4594 1212 4672 
Q 1544 4750 1819 4750 
Q 2544 4750 2975 4387 
Q 3406 4025 3406 3419 
Q 3406 3131 3298 2873 
Q 3191 2616 2906 2266 
Q 2828 2175 2409 1742 
Q 1991 1309 1228 531 
z
" transform="scale(0.015625)"/>
       </defs>
       <use xlink:href="#DejaVuSans-30"/>
       <use xlink:href="#DejaVuSans-2e" transform="translate(63.623047 0)"/>
       <use xlink:href="#DejaVuSans-32" transform="translate(95.410156 0)"/>
      </g>
     </g>
    </g>
    <g id="xtick_4">
     <g id="line2d_4">
      <g>
       <use xlink:href="#ma5f8a9f8be" x="209.548894" y="240.768" style="stroke: #000000; stroke-width: 0.6"/>
      </g>
     </g>
     <g id="text_4">
      <!-- 0.3 -->
      <g transform="translate(201.597332 251.866437) scale(0.1 -0.1)">
       <defs>
        <path id="DejaVuSans-33" d="M 2597 2516 
Q 3050 2419 3304 2112 
Q 3559 1806 3559 1356 
Q 3559 666 3084 287 
Q 2609 -91 1734 -91 
Q 1441 -91 1130 -33 
Q 819 25 488 141 
L 488 750 
Q 750 597 1062 519 
Q 1375 441 1716 441 
Q 2309 441 2620 675 
Q 2931 909 2931 1356 
Q 2931 1769 2642 2001 
Q 2353 2234 1838 2234 
L 1294 2234 
L 1294 2753 
L 1863 2753 
Q 2328 2753 2575 2939 
Q 2822 3125 2822 3475 
Q 2822 3834 2567 4026 
Q 2313 4219 1838 4219 
Q 1578 4219 1281 4162 
Q 984 4106 628 3988 
L 628 4550 
Q 988 4650 1302 4700 
Q 1616 4750 1894 4750 
Q 2613 4750 3031 4423 
Q 3450 4097 3450 3541 
Q 3450 3153 3228 2886 
Q 3006 2619 2597 2516 
z
" transform="scale(0.015625)"/>
       </defs>
       <use xlink:href="#DejaVuSans-30"/>
       <use xlink:href="#DejaVuSans-2e" transform="translate(63.623047 0)"/>
       <use xlink:href="#DejaVuSans-33" transform="translate(95.410156 0)"/>
      </g>
     </g>
    </g>
    <g id="text_5">
     <!-- Motion Ratio -->
     <g transform="translate(100.366322 265.544562) scale(0.1 -0.1)">
      <defs>
       <path id="DejaVuSans-4d" d="M 628 4666 
L 1569 4666 
L 2759 1491 
L 3956 4666 
L 4897 4666 
L 4897 0 
L 4281 0 
L 4281 4097 
L 3078 897 
L 2444 897 
L 1241 4097 
L 1241 0 
L 628 0 
L 628 4666 
z
" transform="scale(0.015625)"/>
       <path id="DejaVuSans-6f" d="M 1959 3097 
Q 1497 3097 1228 2736 
Q 959 2375 959 1747 
Q 959 1119 1226 758 
Q 1494 397 1959 397 
Q 2419 397 2687 759 
Q 2956 1122 2956 1747 
Q 2956 2369 2687 2733 
Q 2419 3097 1959 3097 
z
M 1959 3584 
Q 2709 3584 3137 3096 
Q 3566 2609 3566 1747 
Q 3566 888 3137 398 
Q 2709 -91 1959 -91 
Q 1206 -91 779 398 
Q 353 888 353 1747 
Q 353 2609 779 3096 
Q 1206 3584 1959 3584 
z
" transform="scale(0.015625)"/>
       <path id="DejaVuSans-74" d="M 1172 4494 
L 1172 3500 
L 2356 3500 
L 2356 3053 
L 1172 3053 
L 1172 1153 
Q 1172 725 1289 603 
Q 1406 481 1766 481 
L 2356 481 
L 2356 0 
L 1766 0 
Q 1100 0 847 248 
Q 594 497 594 1153 
L 594 3053 
L 172 3053 
L 172 3500 
L 594 3500 
L 594 4494 
L 1172 4494 
z
" transform="scale(0.015625)"/>
       <path id="DejaVuSans-69" d="M 603 3500 
L 1178 3500 
L 1178 0 
L 603 0 
L 603 3500 
z
M 603 4863 
L 1178 4863 
L 1178 4134 
L 603 4134 
L 603 4863 
z
" transform="scale(0.015625)"/>
       <path id="DejaVuSans-6e" d="M 3513 2113 
L 3513 0 
L 2938 0 
L 2938 2094 
Q 2938 2591 2744 2837 
Q 2550 3084 2163 3084 
Q 1697 3084 1428 2787 
Q 1159 2491 1159 1978 
L 1159 0 
L 581 0 
L 581 3500 
L 1159 3500 
L 1159 2956 
Q 1366 3272 1645 3428 
Q 1925 3584 2291 3584 
Q 2894 3584 3203 3211 
Q 3513 2838 3513 2113 
z
" transform="scale(0.015625)"/>
       <path id="DejaVuSans-20" transform="scale(0.015625)"/>
       <path id="DejaVuSans-52" d="M 2841 2188 
Q 3044 2119 3236 1894 
Q 3428 1669 3622 1275 
L 4263 0 
L 3584 0 
L 2988 1197 
Q 2756 1666 2539 1819 
Q 2322 1972 1947 1972 
L 1259 1972 
L 1259 0 
L 628 0 
L 628 4666 
L 2053 4666 
Q 2853 4666 3247 4331 
Q 3641 3997 3641 3322 
Q 3641 2881 3436 2590 
Q 3231 2300 2841 2188 
z
M 1259 4147 
L 1259 2491 
L 2053 2491 
Q 2509 2491 2742 2702 
Q 2975 2913 2975 3322 
Q 2975 3731 2742 3939 
Q 2509 4147 2053 4147 
L 1259 4147 
z
" transform="scale(0.015625)"/>
       <path id="DejaVuSans-61" d="M 2194 1759 
Q 1497 1759 1228 1600 
Q 959 1441 959 1056 
Q 959 750 1161 570 
Q 1363 391 1709 391 
Q 2188 391 2477 730 
Q 2766 1069 2766 1631 
L 2766 1759 
L 2194 1759 
z
M 3341 1997 
L 3341 0 
L 2766 0 
L 2766 531 
Q 2569 213 2275 61 
Q 1981 -91 1556 -91 
Q 1019 -91 701 211 
Q 384 513 384 1019 
Q 384 1609 779 1909 
Q 1175 2209 1959 2209 
L 2766 2209 
L 2766 2266 
Q 2766 2663 2505 2880 
Q 2244 3097 1772 3097 
Q 1472 3097 1187 3025 
Q 903 2953 641 2809 
L 641 3341 
Q 956 3463 1253 3523 
Q 1550 3584 1831 3584 
Q 2591 3584 2966 3190 
Q 3341 2797 3341 1997 
z
" transform="scale(0.015625)"/>
      </defs>
      <use xlink:href="#DejaVuSans-4d"/>
      <use xlink:href="#DejaVuSans-6f" transform="translate(86.279297 0)"/>
      <use xlink:href="#DejaVuSans-74" transform="translate(147.460938 0)"/>
      <use xlink:href="#DejaVuSans-69" transform="translate(186.669922 0)"/>
      <use xlink:href="#DejaVuSans-6f" transform="translate(214.453125 0)"/>
      <use xlink:href="#DejaVuSans-6e" transform="translate(275.634766 0)"/>
      <use xlink:href="#DejaVuSans-20" transform="translate(339.013672 0)"/>
      <use xlink:href="#DejaVuSans-52" transform="translate(370.800781 0)"/>
      <use xlink:href="#DejaVuSans-61" transform="translate(438.033203 0)"/>
      <use xlink:href="#DejaVuSans-74" transform="translate(499.3125 0)"/>
      <use xlink:href="#DejaVuSans-69" transform="translate(538.521484 0)"/>
      <use xlink:href="#DejaVuSans-6f" transform="translate(566.304688 0)"/>
     </g>
    </g>
   </g>
   <g id="matplotlib.axis_2">
    <g id="ytick_1">
     <g id="line2d_5">
      <defs>
       <path id="m1bc8d05a87" d="M 0 0 
L 3 0 
" style="stroke: #000000; stroke-width: 0.6"/>
      </defs>
      <g>
       <use xlink:href="#m1bc8d05a87" x="43.2" y="230.694545" style="stroke: #000000; stroke-width: 0.6"/>
      </g>
     </g>
     <g id="text_6">
      <!-- 1.0 -->
      <g transform="translate(23.796875 234.493764) scale(0.1 -0.1)">
       <use xlink:href="#DejaVuSans-31"/>
       <use xlink:href="#DejaVuSans-2e" transform="translate(63.623047 0)"/>
       <use xlink:href="#DejaVuSans-30" transform="translate(95.410156 0)"/>
      </g>
     </g>
    </g>
    <g id="ytick_2">
     <g id="line2d_6">
      <g>
       <use xlink:href="#m1bc8d05a87" x="43.2" y="205.510909" style="stroke: #000000; stroke-width: 0.6"/>
      </g>
     </g>
     <g id="text_7">
      <!-- 1.5 -->
      <g transform="translate(23.796875 209.310128) scale(0.1 -0.1)">
       <defs>
        <path id="DejaVuSans-35" d="M 691 4666 
L 3169 4666 
L 3169 4134 
L 1269 4134 
L 1269 2991 
Q 1406 3038 1543 3061 
Q 1681 3084 1819 3084 
Q 2600 3084 3056 2656 
Q 3513 2228 3513 1497 
Q 3513 744 3044 326 
Q 2575 -91 1722 -91 
Q 1428 -91 1123 -41 
Q 819 9 494 109 
L 494 744 
Q 775 591 1075 516 
Q 1375 441 1709 441 
Q 2250 441 2565 725 
Q 2881 1009 2881 1497 
Q 2881 1984 2565 2268 
Q 2250 2553 1709 2553 
Q 1456 2553 1204 2497 
Q 953 2441 691 2322 
L 691 4666 
z
" transform="scale(0.015625)"/>
       </defs>
       <use xlink:href="#DejaVuSans-31"/>
       <use xlink:href="#DejaVuSans-2e" transform="translate(63.623047 0)"/>
       <use xlink:href="#DejaVuSans-35" transform="translate(95.410156 0)"/>
      </g>
     </g>
    </g>
    <g id="ytick_3">
     <g id="line2d_7">
      <g>
       <use xlink:href="#m1bc8d05a87" x="43.2" y="180.327273" style="stroke: #000000; stroke-width: 0.6"/>
      </g>
     </g>
     <g id="text_8">
      <!-- 2.0 -->
      <g transform="translate(23.796875 184.126491) scale(0.1 -0.1)">
       <use xlink:href="#DejaVuSans-32"/>
       <use xlink:href="#DejaVuSans-2e" transform="translate(63.623047 0)"/>
       <use xlink:href="#DejaVuSans-30" transform="translate(95.410156 0)"/>
      </g>
     </g>
    </g>
    <g id="ytick_4">
     <g id="line2d_8">
      <g>
       <use xlink:href="#m1bc8d05a87" x="43.2" y="155.143636" style="stroke: #000000; stroke-width: 0.6"/>
      </g>
     </g>
     <g id="text_9">
      <!-- 2.5 -->
      <g transform="translate(23.796875 158.942855) scale(0.1 -0.1)">
       <use xlink:href="#DejaVuSans-32"/>
       <use xlink:href="#DejaVuSans-2e" transform="translate(63.623047 0)"/>
       <use xlink:href="#DejaVuSans-35" transform="translate(95.410156 0)"/>
      </g>
     </g>
    </g>
    <g id="ytick_5">
     <g id="line2d_9">
      <g>
       <use xlink:href="#m1bc8d05a87" x="43.2" y="129.96" style="stroke: #000000; stroke-width: 0.6"/>
      </g>
     </g>
     <g id="text_10">
      <!-- 3.0 -->
      <g transform="translate(23.796875 133.759219) scale(0.1 -0.1)">
       <use xlink:href="#DejaVuSans-33"/>
       <use xlink:href="#DejaVuSans-2e" transform="translate(63.623047 0)"/>
       <use xlink:href="#DejaVuSans-30" transform="translate(95.410156 0)"/>
      </g>
     </g>
    </g>
    <g id="ytick_6">
     <g id="line2d_10">
      <g>
       <use xlink:href="#m1bc8d05a87" x="43.2" y="104.776364" style="stroke: #000000; stroke-width: 0.6"/>
      </g>
     </g>
     <g id="text_11">
      <!-- 3.5 -->
      <g transform="translate(23.796875 108.575582) scale(0.1 -0.1)">
       <use xlink:href="#DejaVuSans-33"/>
       <use xlink:href="#DejaVuSans-2e" transform="translate(63.623047 0)"/>
       <use xlink:href="#DejaVuSans-35" transform="translate(95.410156 0)"/>
      </g>
     </g>
    </g>
    <g id="ytick_7">
     <g id="line2d_11">
      <g>
       <use xlink:href="#m1bc8d05a87" x="43.2" y="79.592727" style="stroke: #000000; stroke-width: 0.6"/>
      </g>
     </g>
     <g id="text_12">
      <!-- 4.0 -->
      <g transform="translate(23.796875 83.391946) scale(0.1 -0.1)">
       <defs>
        <path id="DejaVuSans-34" d="M 2419 4116 
L 825 1625 
L 2419 1625 
L 2419 4116 
z
M 2253 4666 
L 3047 4666 
L 3047 1625 
L 3713 1625 
L 3713 1100 
L 3047 1100 
L 3047 0 
L 2419 0 
L 2419 1100 
L 313 1100 
L 313 1709 
L 2253 4666 
z
" transform="scale(0.015625)"/>
       </defs>
       <use xlink:href="#DejaVuSans-34"/>
       <use xlink:href="#DejaVuSans-2e" transform="translate(63.623047 0)"/>
       <use xlink:href="#DejaVuSans-30" transform="translate(95.410156 0)"/>
      </g>
     </g>
    </g>
    <g id="ytick_8">
     <g id="line2d_12">
      <g>
       <use xlink:href="#m1bc8d05a87" x="43.2" y="54.409091" style="stroke: #000000; stroke-width: 0.6"/>
      </g>
     </g>
     <g id="text_13">
      <!-- 4.5 -->
      <g transform="translate(23.796875 58.20831) scale(0.1 -0.1)">
       <use xlink:href="#DejaVuSans-34"/>
       <use xlink:href="#DejaVuSans-2e" transform="translate(63.623047 0)"/>
       <use xlink:href="#DejaVuSans-35" transform="translate(95.410156 0)"/>
      </g>
     </g>
    </g>
    <g id="ytick_9">
     <g id="line2d_13">
      <g>
       <use xlink:href="#m1bc8d05a87" x="43.2" y="29.225455" style="stroke: #000000; stroke-width: 0.6"/>
      </g>
     </g>
     <g id="text_14">
      <!-- 5.0 -->
      <g transform="translate(23.796875 33.024673) scale(0.1 -0.1)">
       <use xlink:href="#DejaVuSans-35"/>
       <use xlink:href="#DejaVuSans-2e" transform="translate(63.623047 0)"/>
       <use xlink:href="#DejaVuSans-30" transform="translate(95.410156 0)"/>
      </g>
     </g>
    </g>
    <g id="text_15">
     <!-- Mean Arousal (1–5) -->
     <g transform="translate(17.717187 178.174844) rotate(-90) scale(0.1 -0.1)">
      <defs>
       <path id="DejaVuSans-65" d="M 3597 1894 
L 3597 1613 
L 953 1613 
Q 991 1019 1311 708 
Q 1631 397 2203 397 
Q 2534 397 2845 478 
Q 3156 559 3463 722 
L 3463 178 
Q 3153 47 2828 -22 
Q 2503 -91 2169 -91 
Q 1331 -91 842 396 
Q 353 884 353 1716 
Q 353 2575 817 3079 
Q 1281 3584 2069 3584 
Q 2775 3584 3186 3129 
Q 3597 2675 3597 1894 
z
M 3022 2063 
Q 3016 2534 2758 2815 
Q 2500 3097 2075 3097 
Q 1594 3097 1305 2825 
Q 1016 2553 972 2059 
L 3022 2063 
z
" transform="scale(0.015625)"/>
       <path id="DejaVuSans-41" d="M 2188 4044 
L 1331 1722 
L 3047 1722 
L 2188 4044 
z
M 1831 4666 
L 2547 4666 
L 4325 0 
L 3669 0 
L 3244 1197 
L 1141 1197 
L 716 0 
L 50 0 
L 1831 4666 
z
" transform="scale(0.015625)"/>
       <path id="DejaVuSans-72" d="M 2631 2963 
Q 2534 3019 2420 3045 
Q 2306 3072 2169 3072 
Q 1681 3072 1420 2755 
Q 1159 2438 1159 1844 
L 1159 0 
L 581 0 
L 581 3500 
L 1159 3500 
L 1159 2956 
Q 1341 3275 1631 3429 
Q 1922 3584 2338 3584 
Q 2397 3584 2469 3576 
Q 2541 3569 2628 3553 
L 2631 2963 
z
" transform="scale(0.015625)"/>
       <path id="DejaVuSans-75" d="M 544 1381 
L 544 3500 
L 1119 3500 
L 1119 1403 
Q 1119 906 1312 657 
Q 1506 409 1894 409 
Q 2359 409 2629 706 
Q 2900 1003 2900 1516 
L 2900 3500 
L 3475 3500 
L 3475 0 
L 2900 0 
L 2900 538 
Q 2691 219 2414 64 
Q 2138 -91 1772 -91 
Q 1169 -91 856 284 
Q 544 659 544 1381 
z
M 1991 3584 
L 1991 3584 
z
" transform="scale(0.015625)"/>
       <path id="DejaVuSans-73" d="M 2834 3397 
L 2834 2853 
Q 2591 2978 2328 3040 
Q 2066 3103 1784 3103 
Q 1356 3103 1142 2972 
Q 928 2841 928 2578 
Q 928 2378 1081 2264 
Q 1234 2150 1697 2047 
L 1894 2003 
Q 2506 1872 2764 1633 
Q 3022 1394 3022 966 
Q 3022 478 2636 193 
Q 2250 -91 1575 -91 
Q 1294 -91 989 -36 
Q 684 19 347 128 
L 347 722 
Q 666 556 975 473 
Q 1284 391 1588 391 
Q 1994 391 2212 530 
Q 2431 669 2431 922 
Q 2431 1156 2273 1281 
Q 2116 1406 1581 1522 
L 1381 1569 
Q 847 1681 609 1914 
Q 372 2147 372 2553 
Q 372 3047 722 3315 
Q 1072 3584 1716 3584 
Q 2034 3584 2315 3537 
Q 2597 3491 2834 3397 
z
" transform="scale(0.015625)"/>
       <path id="DejaVuSans-6c" d="M 603 4863 
L 1178 4863 
L 1178 0 
L 603 0 
L 603 4863 
z
" transform="scale(0.015625)"/>
       <path id="DejaVuSans-28" d="M 1984 4856 
Q 1566 4138 1362 3434 
Q 1159 2731 1159 2009 
Q 1159 1288 1364 580 
Q 1569 -128 1984 -844 
L 1484 -844 
Q 1016 -109 783 600 
Q 550 1309 550 2009 
Q 550 2706 781 3412 
Q 1013 4119 1484 4856 
L 1984 4856 
z
" transform="scale(0.015625)"/>
       <path id="DejaVuSans-2013" d="M 313 1978 
L 2888 1978 
L 2888 1528 
L 313 1528 
L 313 1978 
z
" transform="scale(0.015625)"/>
       <path id="DejaVuSans-29" d="M 513 4856 
L 1013 4856 
Q 1481 4119 1714 3412 
Q 1947 2706 1947 2009 
Q 1947 1309 1714 600 
Q 1481 -109 1013 -844 
L 513 -844 
Q 928 -128 1133 580 
Q 1338 1288 1338 2009 
Q 1338 2731 1133 3434 
Q 928 4138 513 4856 
z
" transform="scale(0.015625)"/>
      </defs>
      <use xlink:href="#DejaVuSans-4d"/>
      <use xlink:href="#DejaVuSans-65" transform="translate(86.279297 0)"/>
      <use xlink:href="#DejaVuSans-61" transform="translate(147.802734 0)"/>
      <use xlink:href="#DejaVuSans-6e" transform="translate(209.082031 0)"/>
      <use xlink:href="#DejaVuSans-20" transform="translate(272.460938 0)"/>
      <use xlink:href="#DejaVuSans-41" transform="translate(304.248047 0)"/>
      <use xlink:href="#DejaVuSans-72" transform="translate(372.65625 0)"/>
      <use xlink:href="#DejaVuSans-6f" transform="translate(411.519531 0)"/>
      <use xlink:href="#DejaVuSans-75" transform="translate(472.701172 0)"/>
      <use xlink:href="#DejaVuSans-73" transform="translate(536.080078 0)"/>
      <use xlink:href="#DejaVuSans-61" transform="translate(588.179688 0)"/>
      <use xlink:href="#DejaVuSans-6c" transform="translate(649.458984 0)"/>
      <use xlink:href="#DejaVuSans-20" transform="translate(677.242188 0)"/>
      <use xlink:href="#DejaVuSans-28" transform="translate(709.029297 0)"/>
      <use xlink:href="#DejaVuSans-31" transform="translate(748.042969 0)"/>
      <use xlink:href="#DejaVuSans-2013" transform="translate(811.666016 0)"/>
      <use xlink:href="#DejaVuSans-35" transform="translate(861.666016 0)"/>
      <use xlink:href="#DejaVuSans-29" transform="translate(925.289062 0)"/>
     </g>
    </g>
   </g>
   <g id="line2d_14">
    <path d="M 48.566093 147.369174 
L 50.463197 147.113379 
L 52.360301 146.857584 
L 54.257405 146.601789 
L 56.154508 146.345994 
L 58.051612 146.090199 
L 59.948716 145.834404 
L 61.845819 145.578608 
L 63.742923 145.322813 
L 65.640027 145.067018 
L 67.537131 144.811223 
L 69.434234 144.555428 
L 71.331338 144.299633 
L 73.228442 144.043838 
L 75.125545 143.788043 
L 77.022649 143.532248 
L 78.919753 143.276453 
L 80.816857 143.020658 
L 82.71396 142.764862 
L 84.611064 142.509067 
L 86.508168 142.253272 
L 88.405271 141.997477 
L 90.302375 141.741682 
L 92.199479 141.485887 
L 94.096583 141.230092 
L 95.993686 140.974297 
L 97.89079 140.718502 
L 99.787894 140.462707 
L 101.684997 140.206912 
L 103.582101 139.951116 
L 105.479205 139.695321 
L 107.376309 139.439526 
L 109.273412 139.183731 
L 111.170516 138.927936 
L 113.06762 138.672141 
L 114.964723 138.416346 
L 116.861827 138.160551 
L 118.758931 137.904756 
L 120.656035 137.648961 
L 122.553138 137.393166 
L 124.450242 137.13737 
L 126.347346 136.881575 
L 128.244449 136.62578 
L 130.141553 136.369985 
L 132.038657 136.11419 
L 133.935761 135.858395 
L 135.832864 135.6026 
L 137.729968 135.346805 
L 139.627072 135.09101 
L 141.524175 134.835215 
L 143.421279 134.57942 
L 145.318383 134.323624 
L 147.215487 134.067829 
L 149.11259 133.812034 
L 151.009694 133.556239 
L 152.906798 133.300444 
L 154.803901 133.044649 
L 156.701005 132.788854 
L 158.598109 132.533059 
L 160.495213 132.277264 
L 162.392316 132.021469 
L 164.28942 131.765674 
L 166.186524 131.509878 
L 168.083627 131.254083 
L 169.980731 130.998288 
L 171.877835 130.742493 
L 173.774939 130.486698 
L 175.672042 130.230903 
L 177.569146 129.975108 
L 179.46625 129.719313 
L 181.363353 129.463518 
L 183.260457 129.207723 
L 185.157561 128.951928 
L 187.054665 128.696132 
L 188.951768 128.440337 
L 190.848872 128.184542 
L 192.745976 127.928747 
L 194.643079 127.672952 
L 196.540183 127.417157 
L 198.437287 127.161362 
L 200.334391 126.905567 
L 202.231494 126.649772 
L 204.128598 126.393977 
L 206.025702 126.138182 
L 207.922805 125.882386 
L 209.819909 125.626591 
L 211.717013 125.370796 
L 213.614117 125.115001 
L 215.51122 124.859206 
L 217.408324 124.603411 
L 219.305428 124.347616 
L 221.202531 124.091821 
L 223.099635 123.836026 
L 224.996739 123.580231 
L 226.893843 123.324436 
L 228.790946 123.06864 
L 230.68805 122.812845 
L 232.585154 122.55705 
L 234.482257 122.301255 
L 236.379361 122.04546 
" clip-path="url(#p0d3c2b1aa7)" style="fill: none; stroke-dasharray: 4.44,1.92; stroke-dashoffset: 0; stroke: #555555; stroke-opacity: 0.8; stroke-width: 1.2"/>
   </g>
   <g id="patch_3">
    <path d="M 43.2 240.768 
L 43.2 19.152 
" style="fill: none; stroke: #000000; stroke-width: 0.8; stroke-linejoin: miter; stroke-linecap: square"/>
   </g>
   <g id="patch_4">
    <path d="M 43.2 240.768 
L 220.281081 240.768 
" style="fill: none; stroke: #000000; stroke-width: 0.8; stroke-linejoin: miter; stroke-linecap: square"/>
   </g>
   <g id="text_16">
    <!-- r = 0.18 -->
    <g transform="translate(46.741622 37.071394) scale(0.09 -0.09)">
     <defs>
      <path id="DejaVuSans-3d" d="M 678 2906 
L 4684 2906 
L 4684 2381 
L 678 2381 
L 678 2906 
z
M 678 1631 
L 4684 1631 
L 4684 1100 
L 678 1100 
L 678 1631 
z
" transform="scale(0.015625)"/>
      <path id="DejaVuSans-38" d="M 2034 2216 
Q 1584 2216 1326 1975 
Q 1069 1734 1069 1313 
Q 1069 891 1326 650 
Q 1584 409 2034 409 
Q 2484 409 2743 651 
Q 3003 894 3003 1313 
Q 3003 1734 2745 1975 
Q 2488 2216 2034 2216 
z
M 1403 2484 
Q 997 2584 770 2862 
Q 544 3141 544 3541 
Q 544 4100 942 4425 
Q 1341 4750 2034 4750 
Q 2731 4750 3128 4425 
Q 3525 4100 3525 3541 
Q 3525 3141 3298 2862 
Q 3072 2584 2669 2484 
Q 3125 2378 3379 2068 
Q 3634 1759 3634 1313 
Q 3634 634 3220 271 
Q 2806 -91 2034 -91 
Q 1263 -91 848 271 
Q 434 634 434 1313 
Q 434 1759 690 2068 
Q 947 2378 1403 2484 
z
M 1172 3481 
Q 1172 3119 1398 2916 
Q 1625 2713 2034 2713 
Q 2441 2713 2670 2916 
Q 2900 3119 2900 3481 
Q 2900 3844 2670 4047 
Q 2441 4250 2034 4250 
Q 1625 4250 1398 4047 
Q 1172 3844 1172 3481 
z
" transform="scale(0.015625)"/>
     </defs>
     <use xlink:href="#DejaVuSans-72"/>
     <use xlink:href="#DejaVuSans-20" transform="translate(41.113281 0)"/>
     <use xlink:href="#DejaVuSans-3d" transform="translate(72.900391 0)"/>
     <use xlink:href="#DejaVuSans-20" transform="translate(156.689453 0)"/>
     <use xlink:href="#DejaVuSans-30" transform="translate(188.476562 0)"/>
     <use xlink:href="#DejaVuSans-2e" transform="translate(252.099609 0)"/>
     <use xlink:href="#DejaVuSans-31" transform="translate(283.886719 0)"/>
     <use xlink:href="#DejaVuSans-38" transform="translate(347.509766 0)"/>
    </g>
    <!-- p = 0.26 -->
    <g transform="translate(46.741622 47.149425) scale(0.09 -0.09)">
     <defs>
      <path id="DejaVuSans-70" d="M 1159 525 
L 1159 -1331 
L 581 -1331 
L 581 3500 
L 1159 3500 
L 1159 2969 
Q 1341 3281 1617 3432 
Q 1894 3584 2278 3584 
Q 2916 3584 3314 3078 
Q 3713 2572 3713 1747 
Q 3713 922 3314 415 
Q 2916 -91 2278 -91 
Q 1894 -91 1617 61 
Q 1341 213 1159 525 
z
M 3116 1747 
Q 3116 2381 2855 2742 
Q 2594 3103 2138 3103 
Q 1681 3103 1420 2742 
Q 1159 2381 1159 1747 
Q 1159 1113 1420 752 
Q 1681 391 2138 391 
Q 2594 391 2855 752 
Q 3116 1113 3116 1747 
z
" transform="scale(0.015625)"/>
      <path id="DejaVuSans-36" d="M 2113 2584 
Q 1688 2584 1439 2293 
Q 1191 2003 1191 1497 
Q 1191 994 1439 701 
Q 1688 409 2113 409 
Q 2538 409 2786 701 
Q 3034 994 3034 1497 
Q 3034 2003 2786 2293 
Q 2538 2584 2113 2584 
z
M 3366 4563 
L 3366 3988 
Q 3128 4100 2886 4159 
Q 2644 4219 2406 4219 
Q 1781 4219 1451 3797 
Q 1122 3375 1075 2522 
Q 1259 2794 1537 2939 
Q 1816 3084 2150 3084 
Q 2853 3084 3261 2657 
Q 3669 2231 3669 1497 
Q 3669 778 3244 343 
Q 2819 -91 2113 -91 
Q 1303 -91 875 529 
Q 447 1150 447 2328 
Q 447 3434 972 4092 
Q 1497 4750 2381 4750 
Q 2619 4750 2861 4703 
Q 3103 4656 3366 4563 
z
" transform="scale(0.015625)"/>
     </defs>
     <use xlink:href="#DejaVuSans-70"/>
     <use xlink:href="#DejaVuSans-20" transform="translate(63.476562 0)"/>
     <use xlink:href="#DejaVuSans-3d" transform="translate(95.263672 0)"/>
     <use xlink:href="#DejaVuSans-20" transform="translate(179.052734 0)"/>
     <use xlink:href="#DejaVuSans-30" transform="translate(210.839844 0)"/>
     <use xlink:href="#DejaVuSans-2e" transform="translate(274.462891 0)"/>
     <use xlink:href="#DejaVuSans-32" transform="translate(306.25 0)"/>
     <use xlink:href="#DejaVuSans-36" transform="translate(369.873047 0)"/>
    </g>
   </g>
   <g id="text_17">
    <!-- A: Motion vs Arousal -->
    <g transform="translate(70.602416 13.152) scale(0.12 -0.12)">
     <defs>
      <path id="DejaVuSans-3a" d="M 750 794 
L 1409 794 
L 1409 0 
L 750 0 
L 750 794 
z
M 750 3309 
L 1409 3309 
L 1409 2516 
L 750 2516 
L 750 3309 
z
" transform="scale(0.015625)"/>
      <path id="DejaVuSans-76" d="M 191 3500 
L 800 3500 
L 1894 563 
L 2988 3500 
L 3597 3500 
L 2284 0 
L 1503 0 
L 191 3500 
z
" transform="scale(0.015625)"/>
     </defs>
     <use xlink:href="#DejaVuSans-41"/>
     <use xlink:href="#DejaVuSans-3a" transform="translate(66.658203 0)"/>
     <use xlink:href="#DejaVuSans-20" transform="translate(100.349609 0)"/>
     <use xlink:href="#DejaVuSans-4d" transform="translate(132.136719 0)"/>
     <use xlink:href="#DejaVuSans-6f" transform="translate(218.416016 0)"/>
     <use xlink:href="#DejaVuSans-74" transform="translate(279.597656 0)"/>
     <use xlink:href="#DejaVuSans-69" transform="translate(318.806641 0)"/>
     <use xlink:href="#DejaVuSans-6f" transform="translate(346.589844 0)"/>
     <use xlink:href="#DejaVuSans-6e" transform="translate(407.771484 0)"/>
     <use xlink:href="#DejaVuSans-20" transform="translate(471.150391 0)"/>
     <use xlink:href="#DejaVuSans-76" transform="translate(502.9375 0)"/>
     <use xlink:href="#DejaVuSans-73" transform="translate(562.117188 0)"/>
     <use xlink:href="#DejaVuSans-20" transform="translate(614.216797 0)"/>
     <use xlink:href="#DejaVuSans-41" transform="translate(646.003906 0)"/>
     <use xlink:href="#DejaVuSans-72" transform="translate(714.412109 0)"/>
     <use xlink:href="#DejaVuSans-6f" transform="translate(753.275391 0)"/>
     <use xlink:href="#DejaVuSans-75" transform="translate(814.457031 0)"/>
     <use xlink:href="#DejaVuSans-73" transform="translate(877.835938 0)"/>
     <use xlink:href="#DejaVuSans-61" transform="translate(929.935547 0)"/>
     <use xlink:href="#DejaVuSans-6c" transform="translate(991.214844 0)"/>
    </g>
   </g>
   <g id="legend_1">
    <g id="PathCollection_3">
     <g>
      <use xlink:href="#m8fa34ceb85" x="176.0903" y="220.900031" style="fill: #8ba684; fill-opacity: 0.7; stroke: #ffffff; stroke-opacity: 0.7; stroke-width: 0.5"/>
     </g>
    </g>
    <g id="text_18">
     <!-- Still -->
     <g transform="translate(188.6903 222.737531) scale(0.07 -0.07)">
      <defs>
       <path id="DejaVuSans-53" d="M 3425 4513 
L 3425 3897 
Q 3066 4069 2747 4153 
Q 2428 4238 2131 4238 
Q 1616 4238 1336 4038 
Q 1056 3838 1056 3469 
Q 1056 3159 1242 3001 
Q 1428 2844 1947 2747 
L 2328 2669 
Q 3034 2534 3370 2195 
Q 3706 1856 3706 1288 
Q 3706 609 3251 259 
Q 2797 -91 1919 -91 
Q 1588 -91 1214 -16 
Q 841 59 441 206 
L 441 856 
Q 825 641 1194 531 
Q 1563 422 1919 422 
Q 2459 422 2753 634 
Q 3047 847 3047 1241 
Q 3047 1584 2836 1778 
Q 2625 1972 2144 2069 
L 1759 2144 
Q 1053 2284 737 2584 
Q 422 2884 422 3419 
Q 422 4038 858 4394 
Q 1294 4750 2059 4750 
Q 2388 4750 2728 4690 
Q 3069 4631 3425 4513 
z
" transform="scale(0.015625)"/>
      </defs>
      <use xlink:href="#DejaVuSans-53"/>
      <use xlink:href="#DejaVuSans-74" transform="translate(63.476562 0)"/>
      <use xlink:href="#DejaVuSans-69" transform="translate(102.685547 0)"/>
      <use xlink:href="#DejaVuSans-6c" transform="translate(130.46875 0)"/>
      <use xlink:href="#DejaVuSans-6c" transform="translate(158.251953 0)"/>
     </g>
    </g>
    <g id="PathCollection_4">
     <g>
      <use xlink:href="#m95b66d2f2e" x="176.0903" y="231.174719" style="fill: #e0a060; fill-opacity: 0.7; stroke: #ffffff; stroke-opacity: 0.7; stroke-width: 0.5"/>
     </g>
    </g>
    <g id="text_19">
     <!-- Moving -->
     <g transform="translate(188.6903 233.012219) scale(0.07 -0.07)">
      <defs>
       <path id="DejaVuSans-67" d="M 2906 1791 
Q 2906 2416 2648 2759 
Q 2391 3103 1925 3103 
Q 1463 3103 1205 2759 
Q 947 2416 947 1791 
Q 947 1169 1205 825 
Q 1463 481 1925 481 
Q 2391 481 2648 825 
Q 2906 1169 2906 1791 
z
M 3481 434 
Q 3481 -459 3084 -895 
Q 2688 -1331 1869 -1331 
Q 1566 -1331 1297 -1286 
Q 1028 -1241 775 -1147 
L 775 -588 
Q 1028 -725 1275 -790 
Q 1522 -856 1778 -856 
Q 2344 -856 2625 -561 
Q 2906 -266 2906 331 
L 2906 616 
Q 2728 306 2450 153 
Q 2172 0 1784 0 
Q 1141 0 747 490 
Q 353 981 353 1791 
Q 353 2603 747 3093 
Q 1141 3584 1784 3584 
Q 2172 3584 2450 3431 
Q 2728 3278 2906 2969 
L 2906 3500 
L 3481 3500 
L 3481 434 
z
" transform="scale(0.015625)"/>
      </defs>
      <use xlink:href="#DejaVuSans-4d"/>
      <use xlink:href="#DejaVuSans-6f" transform="translate(86.279297 0)"/>
      <use xlink:href="#DejaVuSans-76" transform="translate(147.460938 0)"/>
      <use xlink:href="#DejaVuSans-69" transform="translate(206.640625 0)"/>
      <use xlink:href="#DejaVuSans-6e" transform="translate(234.423828 0)"/>
      <use xlink:href="#DejaVuSans-67" transform="translate(297.802734 0)"/>
     </g>
    </g>
   </g>
  </g>
  <g id="axes_2">
   <g id="patch_5">
    <path d="M 282.259459 240.768 
L 459.340541 240.768 
L 459.340541 19.152 
L 282.259459 19.152 
z
" style="fill: #ffffff"/>
   </g>
   <g id="patch_6">
    <path d="M 290.3086 240.768 
L 324.199716 240.768 
L 324.199716 176.87696 
L 290.3086 176.87696 
z
" clip-path="url(#p4ad34894bd)" style="fill: #8ba684; stroke: #ffffff; stroke-width: 0.5; stroke-linejoin: miter"/>
   </g>
   <g id="patch_7">
    <path d="M 332.672495 240.768 
L 366.563611 240.768 
L 366.563611 179.971503 
L 332.672495 179.971503 
z
" clip-path="url(#p4ad34894bd)" style="fill: #9aaf8a; stroke: #ffffff; stroke-width: 0.5; stroke-linejoin: miter"/>
   </g>
   <g id="patch_8">
    <path d="M 375.036389 240.768 
L 408.927505 240.768 
L 408.927505 168.389696 
L 375.036389 168.389696 
z
" clip-path="url(#p4ad34894bd)" style="fill: #b89a6a; stroke: #ffffff; stroke-width: 0.5; stroke-linejoin: miter"/>
   </g>
   <g id="patch_9">
    <path d="M 417.400284 240.768 
L 451.2914 240.768 
L 451.2914 141.407033 
L 417.400284 141.407033 
z
" clip-path="url(#p4ad34894bd)" style="fill: #e0a060; stroke: #ffffff; stroke-width: 0.5; stroke-linejoin: miter"/>
   </g>
   <g id="matplotlib.axis_3">
    <g id="xtick_5">
     <g id="line2d_15">
      <g>
       <use xlink:href="#ma5f8a9f8be" x="307.254158" y="240.768" style="stroke: #000000; stroke-width: 0.6"/>
      </g>
     </g>
     <g id="text_20">
      <!-- Q1 -->
      <g transform="translate(301.560408 250.34675) scale(0.08 -0.08)">
       <defs>
        <path id="DejaVuSans-51" d="M 2522 4238 
Q 1834 4238 1429 3725 
Q 1025 3213 1025 2328 
Q 1025 1447 1429 934 
Q 1834 422 2522 422 
Q 3209 422 3611 934 
Q 4013 1447 4013 2328 
Q 4013 3213 3611 3725 
Q 3209 4238 2522 4238 
z
M 3406 84 
L 4238 -825 
L 3475 -825 
L 2784 -78 
Q 2681 -84 2626 -87 
Q 2572 -91 2522 -91 
Q 1538 -91 948 567 
Q 359 1225 359 2328 
Q 359 3434 948 4092 
Q 1538 4750 2522 4750 
Q 3503 4750 4090 4092 
Q 4678 3434 4678 2328 
Q 4678 1516 4351 937 
Q 4025 359 3406 84 
z
" transform="scale(0.015625)"/>
       </defs>
       <use xlink:href="#DejaVuSans-51"/>
       <use xlink:href="#DejaVuSans-31" transform="translate(78.710938 0)"/>
      </g>
      <!-- (1.8–2.3) -->
      <g transform="translate(289.410408 259.305) scale(0.08 -0.08)">
       <use xlink:href="#DejaVuSans-28"/>
       <use xlink:href="#DejaVuSans-31" transform="translate(39.013672 0)"/>
       <use xlink:href="#DejaVuSans-2e" transform="translate(102.636719 0)"/>
       <use xlink:href="#DejaVuSans-38" transform="translate(134.423828 0)"/>
       <use xlink:href="#DejaVuSans-2013" transform="translate(198.046875 0)"/>
       <use xlink:href="#DejaVuSans-32" transform="translate(248.046875 0)"/>
       <use xlink:href="#DejaVuSans-2e" transform="translate(311.669922 0)"/>
       <use xlink:href="#DejaVuSans-33" transform="translate(343.457031 0)"/>
       <use xlink:href="#DejaVuSans-29" transform="translate(407.080078 0)"/>
      </g>
     </g>
    </g>
    <g id="xtick_6">
     <g id="line2d_16">
      <g>
       <use xlink:href="#ma5f8a9f8be" x="349.618053" y="240.768" style="stroke: #000000; stroke-width: 0.6"/>
      </g>
     </g>
     <g id="text_21">
      <!-- Q2 -->
      <g transform="translate(343.924303 250.34675) scale(0.08 -0.08)">
       <use xlink:href="#DejaVuSans-51"/>
       <use xlink:href="#DejaVuSans-32" transform="translate(78.710938 0)"/>
      </g>
      <!-- (2.3–2.8) -->
      <g transform="translate(331.774303 259.305) scale(0.08 -0.08)">
       <use xlink:href="#DejaVuSans-28"/>
       <use xlink:href="#DejaVuSans-32" transform="translate(39.013672 0)"/>
       <use xlink:href="#DejaVuSans-2e" transform="translate(102.636719 0)"/>
       <use xlink:href="#DejaVuSans-33" transform="translate(134.423828 0)"/>
       <use xlink:href="#DejaVuSans-2013" transform="translate(198.046875 0)"/>
       <use xlink:href="#DejaVuSans-32" transform="translate(248.046875 0)"/>
       <use xlink:href="#DejaVuSans-2e" transform="translate(311.669922 0)"/>
       <use xlink:href="#DejaVuSans-38" transform="translate(343.457031 0)"/>
       <use xlink:href="#DejaVuSans-29" transform="translate(407.080078 0)"/>
      </g>
     </g>
    </g>
    <g id="xtick_7">
     <g id="line2d_17">
      <g>
       <use xlink:href="#ma5f8a9f8be" x="391.981947" y="240.768" style="stroke: #000000; stroke-width: 0.6"/>
      </g>
     </g>
     <g id="text_22">
      <!-- Q3 -->
      <g transform="translate(386.288197 250.34675) scale(0.08 -0.08)">
       <use xlink:href="#DejaVuSans-51"/>
       <use xlink:href="#DejaVuSans-33" transform="translate(78.710938 0)"/>
      </g>
      <!-- (2.8–3.1) -->
      <g transform="translate(374.138197 259.305) scale(0.08 -0.08)">
       <use xlink:href="#DejaVuSans-28"/>
       <use xlink:href="#DejaVuSans-32" transform="translate(39.013672 0)"/>
       <use xlink:href="#DejaVuSans-2e" transform="translate(102.636719 0)"/>
       <use xlink:href="#DejaVuSans-38" transform="translate(134.423828 0)"/>
       <use xlink:href="#DejaVuSans-2013" transform="translate(198.046875 0)"/>
       <use xlink:href="#DejaVuSans-33" transform="translate(248.046875 0)"/>
       <use xlink:href="#DejaVuSans-2e" transform="translate(311.669922 0)"/>
       <use xlink:href="#DejaVuSans-31" transform="translate(343.457031 0)"/>
       <use xlink:href="#DejaVuSans-29" transform="translate(407.080078 0)"/>
      </g>
     </g>
    </g>
    <g id="xtick_8">
     <g id="line2d_18">
      <g>
       <use xlink:href="#ma5f8a9f8be" x="434.345842" y="240.768" style="stroke: #000000; stroke-width: 0.6"/>
      </g>
     </g>
     <g id="text_23">
      <!-- Q4 -->
      <g transform="translate(428.652092 250.34675) scale(0.08 -0.08)">
       <use xlink:href="#DejaVuSans-51"/>
       <use xlink:href="#DejaVuSans-34" transform="translate(78.710938 0)"/>
      </g>
      <!-- (3.1–4.2) -->
      <g transform="translate(416.502092 259.305) scale(0.08 -0.08)">
       <use xlink:href="#DejaVuSans-28"/>
       <use xlink:href="#DejaVuSans-33" transform="translate(39.013672 0)"/>
       <use xlink:href="#DejaVuSans-2e" transform="translate(102.636719 0)"/>
       <use xlink:href="#DejaVuSans-31" transform="translate(134.423828 0)"/>
       <use xlink:href="#DejaVuSans-2013" transform="translate(198.046875 0)"/>
       <use xlink:href="#DejaVuSans-34" transform="translate(248.046875 0)"/>
       <use xlink:href="#DejaVuSans-2e" transform="translate(311.669922 0)"/>
       <use xlink:href="#DejaVuSans-32" transform="translate(343.457031 0)"/>
       <use xlink:href="#DejaVuSans-29" transform="translate(407.080078 0)"/>
      </g>
     </g>
    </g>
   </g>
   <g id="matplotlib.axis_4">
    <g id="ytick_10">
     <g id="line2d_19">
      <g>
       <use xlink:href="#m1bc8d05a87" x="282.259459" y="240.768" style="stroke: #000000; stroke-width: 0.6"/>
      </g>
     </g>
     <g id="text_24">
      <!-- 0.000 -->
      <g transform="translate(250.131334 244.567219) scale(0.1 -0.1)">
       <use xlink:href="#DejaVuSans-30"/>
       <use xlink:href="#DejaVuSans-2e" transform="translate(63.623047 0)"/>
       <use xlink:href="#DejaVuSans-30" transform="translate(95.410156 0)"/>
       <use xlink:href="#DejaVuSans-30" transform="translate(159.033203 0)"/>
       <use xlink:href="#DejaVuSans-30" transform="translate(222.65625 0)"/>
      </g>
     </g>
    </g>
    <g id="ytick_11">
     <g id="line2d_20">
      <g>
       <use xlink:href="#m1bc8d05a87" x="282.259459" y="215.584364" style="stroke: #000000; stroke-width: 0.6"/>
      </g>
     </g>
     <g id="text_25">
      <!-- 0.025 -->
      <g transform="translate(250.131334 219.383582) scale(0.1 -0.1)">
       <use xlink:href="#DejaVuSans-30"/>
       <use xlink:href="#DejaVuSans-2e" transform="translate(63.623047 0)"/>
       <use xlink:href="#DejaVuSans-30" transform="translate(95.410156 0)"/>
       <use xlink:href="#DejaVuSans-32" transform="translate(159.033203 0)"/>
       <use xlink:href="#DejaVuSans-35" transform="translate(222.65625 0)"/>
      </g>
     </g>
    </g>
    <g id="ytick_12">
     <g id="line2d_21">
      <g>
       <use xlink:href="#m1bc8d05a87" x="282.259459" y="190.400727" style="stroke: #000000; stroke-width: 0.6"/>
      </g>
     </g>
     <g id="text_26">
      <!-- 0.050 -->
      <g transform="translate(250.131334 194.199946) scale(0.1 -0.1)">
       <use xlink:href="#DejaVuSans-30"/>
       <use xlink:href="#DejaVuSans-2e" transform="translate(63.623047 0)"/>
       <use xlink:href="#DejaVuSans-30" transform="translate(95.410156 0)"/>
       <use xlink:href="#DejaVuSans-35" transform="translate(159.033203 0)"/>
       <use xlink:href="#DejaVuSans-30" transform="translate(222.65625 0)"/>
      </g>
     </g>
    </g>
    <g id="ytick_13">
     <g id="line2d_22">
      <g>
       <use xlink:href="#m1bc8d05a87" x="282.259459" y="165.217091" style="stroke: #000000; stroke-width: 0.6"/>
      </g>
     </g>
     <g id="text_27">
      <!-- 0.075 -->
      <g transform="translate(250.131334 169.01631) scale(0.1 -0.1)">
       <defs>
        <path id="DejaVuSans-37" d="M 525 4666 
L 3525 4666 
L 3525 4397 
L 1831 0 
L 1172 0 
L 2766 4134 
L 525 4134 
L 525 4666 
z
" transform="scale(0.015625)"/>
       </defs>
       <use xlink:href="#DejaVuSans-30"/>
       <use xlink:href="#DejaVuSans-2e" transform="translate(63.623047 0)"/>
       <use xlink:href="#DejaVuSans-30" transform="translate(95.410156 0)"/>
       <use xlink:href="#DejaVuSans-37" transform="translate(159.033203 0)"/>
       <use xlink:href="#DejaVuSans-35" transform="translate(222.65625 0)"/>
      </g>
     </g>
    </g>
    <g id="ytick_14">
     <g id="line2d_23">
      <g>
       <use xlink:href="#m1bc8d05a87" x="282.259459" y="140.033455" style="stroke: #000000; stroke-width: 0.6"/>
      </g>
     </g>
     <g id="text_28">
      <!-- 0.100 -->
      <g transform="translate(250.131334 143.832673) scale(0.1 -0.1)">
       <use xlink:href="#DejaVuSans-30"/>
       <use xlink:href="#DejaVuSans-2e" transform="translate(63.623047 0)"/>
       <use xlink:href="#DejaVuSans-31" transform="translate(95.410156 0)"/>
       <use xlink:href="#DejaVuSans-30" transform="translate(159.033203 0)"/>
       <use xlink:href="#DejaVuSans-30" transform="translate(222.65625 0)"/>
      </g>
     </g>
    </g>
    <g id="ytick_15">
     <g id="line2d_24">
      <g>
       <use xlink:href="#m1bc8d05a87" x="282.259459" y="114.849818" style="stroke: #000000; stroke-width: 0.6"/>
      </g>
     </g>
     <g id="text_29">
      <!-- 0.125 -->
      <g transform="translate(250.131334 118.649037) scale(0.1 -0.1)">
       <use xlink:href="#DejaVuSans-30"/>
       <use xlink:href="#DejaVuSans-2e" transform="translate(63.623047 0)"/>
       <use xlink:href="#DejaVuSans-31" transform="translate(95.410156 0)"/>
       <use xlink:href="#DejaVuSans-32" transform="translate(159.033203 0)"/>
       <use xlink:href="#DejaVuSans-35" transform="translate(222.65625 0)"/>
      </g>
     </g>
    </g>
    <g id="ytick_16">
     <g id="line2d_25">
      <g>
       <use xlink:href="#m1bc8d05a87" x="282.259459" y="89.666182" style="stroke: #000000; stroke-width: 0.6"/>
      </g>
     </g>
     <g id="text_30">
      <!-- 0.150 -->
      <g transform="translate(250.131334 93.465401) scale(0.1 -0.1)">
       <use xlink:href="#DejaVuSans-30"/>
       <use xlink:href="#DejaVuSans-2e" transform="translate(63.623047 0)"/>
       <use xlink:href="#DejaVuSans-31" transform="translate(95.410156 0)"/>
       <use xlink:href="#DejaVuSans-35" transform="translate(159.033203 0)"/>
       <use xlink:href="#DejaVuSans-30" transform="translate(222.65625 0)"/>
      </g>
     </g>
    </g>
    <g id="ytick_17">
     <g id="line2d_26">
      <g>
       <use xlink:href="#m1bc8d05a87" x="282.259459" y="64.482545" style="stroke: #000000; stroke-width: 0.6"/>
      </g>
     </g>
     <g id="text_31">
      <!-- 0.175 -->
      <g transform="translate(250.131334 68.281764) scale(0.1 -0.1)">
       <use xlink:href="#DejaVuSans-30"/>
       <use xlink:href="#DejaVuSans-2e" transform="translate(63.623047 0)"/>
       <use xlink:href="#DejaVuSans-31" transform="translate(95.410156 0)"/>
       <use xlink:href="#DejaVuSans-37" transform="translate(159.033203 0)"/>
       <use xlink:href="#DejaVuSans-35" transform="translate(222.65625 0)"/>
      </g>
     </g>
    </g>
    <g id="ytick_18">
     <g id="line2d_27">
      <g>
       <use xlink:href="#m1bc8d05a87" x="282.259459" y="39.298909" style="stroke: #000000; stroke-width: 0.6"/>
      </g>
     </g>
     <g id="text_32">
      <!-- 0.200 -->
      <g transform="translate(250.131334 43.098128) scale(0.1 -0.1)">
       <use xlink:href="#DejaVuSans-30"/>
       <use xlink:href="#DejaVuSans-2e" transform="translate(63.623047 0)"/>
       <use xlink:href="#DejaVuSans-32" transform="translate(95.410156 0)"/>
       <use xlink:href="#DejaVuSans-30" transform="translate(159.033203 0)"/>
       <use xlink:href="#DejaVuSans-30" transform="translate(222.65625 0)"/>
      </g>
     </g>
    </g>
    <g id="text_33">
     <!-- Mean Motion Ratio -->
     <g transform="translate(244.051647 176.546719) rotate(-90) scale(0.1 -0.1)">
      <use xlink:href="#DejaVuSans-4d"/>
      <use xlink:href="#DejaVuSans-65" transform="translate(86.279297 0)"/>
      <use xlink:href="#DejaVuSans-61" transform="translate(147.802734 0)"/>
      <use xlink:href="#DejaVuSans-6e" transform="translate(209.082031 0)"/>
      <use xlink:href="#DejaVuSans-20" transform="translate(272.460938 0)"/>
      <use xlink:href="#DejaVuSans-4d" transform="translate(304.248047 0)"/>
      <use xlink:href="#DejaVuSans-6f" transform="translate(390.527344 0)"/>
      <use xlink:href="#DejaVuSans-74" transform="translate(451.708984 0)"/>
      <use xlink:href="#DejaVuSans-69" transform="translate(490.917969 0)"/>
      <use xlink:href="#DejaVuSans-6f" transform="translate(518.701172 0)"/>
      <use xlink:href="#DejaVuSans-6e" transform="translate(579.882812 0)"/>
      <use xlink:href="#DejaVuSans-20" transform="translate(643.261719 0)"/>
      <use xlink:href="#DejaVuSans-52" transform="translate(675.048828 0)"/>
      <use xlink:href="#DejaVuSans-61" transform="translate(742.28125 0)"/>
      <use xlink:href="#DejaVuSans-74" transform="translate(803.560547 0)"/>
      <use xlink:href="#DejaVuSans-69" transform="translate(842.769531 0)"/>
      <use xlink:href="#DejaVuSans-6f" transform="translate(870.552734 0)"/>
     </g>
    </g>
   </g>
   <g id="LineCollection_1">
    <path d="M 307.254158 191.222588 
L 307.254158 162.531333 
" clip-path="url(#p4ad34894bd)" style="fill: none; stroke: #666666; stroke-width: 0.8"/>
    <path d="M 349.618053 201.417637 
L 349.618053 158.525368 
" clip-path="url(#p4ad34894bd)" style="fill: none; stroke: #666666; stroke-width: 0.8"/>
    <path d="M 391.981947 189.931645 
L 391.981947 146.847748 
" clip-path="url(#p4ad34894bd)" style="fill: none; stroke: #666666; stroke-width: 0.8"/>
    <path d="M 434.345842 166.407646 
L 434.345842 116.40642 
" clip-path="url(#p4ad34894bd)" style="fill: none; stroke: #666666; stroke-width: 0.8"/>
   </g>
   <g id="line2d_28">
    <defs>
     <path id="m8a9fa8ff26" d="M 3 0 
L -3 -0 
" style="stroke: #666666"/>
    </defs>
    <g clip-path="url(#p4ad34894bd)">
     <use xlink:href="#m8a9fa8ff26" x="307.254158" y="191.222588" style="fill: #666666; stroke: #666666"/>
     <use xlink:href="#m8a9fa8ff26" x="349.618053" y="201.417637" style="fill: #666666; stroke: #666666"/>
     <use xlink:href="#m8a9fa8ff26" x="391.981947" y="189.931645" style="fill: #666666; stroke: #666666"/>
     <use xlink:href="#m8a9fa8ff26" x="434.345842" y="166.407646" style="fill: #666666; stroke: #666666"/>
    </g>
   </g>
   <g id="line2d_29">
    <g clip-path="url(#p4ad34894bd)">
     <use xlink:href="#m8a9fa8ff26" x="307.254158" y="162.531333" style="fill: #666666; stroke: #666666"/>
     <use xlink:href="#m8a9fa8ff26" x="349.618053" y="158.525368" style="fill: #666666; stroke: #666666"/>
     <use xlink:href="#m8a9fa8ff26" x="391.981947" y="146.847748" style="fill: #666666; stroke: #666666"/>
     <use xlink:href="#m8a9fa8ff26" x="434.345842" y="116.40642" style="fill: #666666; stroke: #666666"/>
    </g>
   </g>
   <g id="patch_10">
    <path d="M 282.259459 240.768 
L 282.259459 19.152 
" style="fill: none; stroke: #000000; stroke-width: 0.8; stroke-linejoin: miter; stroke-linecap: square"/>
   </g>
   <g id="patch_11">
    <path d="M 282.259459 240.768 
L 459.340541 240.768 
" style="fill: none; stroke: #000000; stroke-width: 0.8; stroke-linejoin: miter; stroke-linecap: square"/>
   </g>
   <g id="text_34">
    <!-- B: Motion by Arousal Quartile -->
    <g transform="translate(282.9075 13.152) scale(0.12 -0.12)">
     <defs>
      <path id="DejaVuSans-42" d="M 1259 2228 
L 1259 519 
L 2272 519 
Q 2781 519 3026 730 
Q 3272 941 3272 1375 
Q 3272 1813 3026 2020 
Q 2781 2228 2272 2228 
L 1259 2228 
z
M 1259 4147 
L 1259 2741 
L 2194 2741 
Q 2656 2741 2882 2914 
Q 3109 3088 3109 3444 
Q 3109 3797 2882 3972 
Q 2656 4147 2194 4147 
L 1259 4147 
z
M 628 4666 
L 2241 4666 
Q 2963 4666 3353 4366 
Q 3744 4066 3744 3513 
Q 3744 3084 3544 2831 
Q 3344 2578 2956 2516 
Q 3422 2416 3680 2098 
Q 3938 1781 3938 1306 
Q 3938 681 3513 340 
Q 3088 0 2303 0 
L 628 0 
L 628 4666 
z
" transform="scale(0.015625)"/>
      <path id="DejaVuSans-62" d="M 3116 1747 
Q 3116 2381 2855 2742 
Q 2594 3103 2138 3103 
Q 1681 3103 1420 2742 
Q 1159 2381 1159 1747 
Q 1159 1113 1420 752 
Q 1681 391 2138 391 
Q 2594 391 2855 752 
Q 3116 1113 3116 1747 
z
M 1159 2969 
Q 1341 3281 1617 3432 
Q 1894 3584 2278 3584 
Q 2916 3584 3314 3078 
Q 3713 2572 3713 1747 
Q 3713 922 3314 415 
Q 2916 -91 2278 -91 
Q 1894 -91 1617 61 
Q 1341 213 1159 525 
L 1159 0 
L 581 0 
L 581 4863 
L 1159 4863 
L 1159 2969 
z
" transform="scale(0.015625)"/>
      <path id="DejaVuSans-79" d="M 2059 -325 
Q 1816 -950 1584 -1140 
Q 1353 -1331 966 -1331 
L 506 -1331 
L 506 -850 
L 844 -850 
Q 1081 -850 1212 -737 
Q 1344 -625 1503 -206 
L 1606 56 
L 191 3500 
L 800 3500 
L 1894 763 
L 2988 3500 
L 3597 3500 
L 2059 -325 
z
" transform="scale(0.015625)"/>
     </defs>
     <use xlink:href="#DejaVuSans-42"/>
     <use xlink:href="#DejaVuSans-3a" transform="translate(68.603516 0)"/>
     <use xlink:href="#DejaVuSans-20" transform="translate(102.294922 0)"/>
     <use xlink:href="#DejaVuSans-4d" transform="translate(134.082031 0)"/>
     <use xlink:href="#DejaVuSans-6f" transform="translate(220.361328 0)"/>
     <use xlink:href="#DejaVuSans-74" transform="translate(281.542969 0)"/>
     <use xlink:href="#DejaVuSans-69" transform="translate(320.751953 0)"/>
     <use xlink:href="#DejaVuSans-6f" transform="translate(348.535156 0)"/>
     <use xlink:href="#DejaVuSans-6e" transform="translate(409.716797 0)"/>
     <use xlink:href="#DejaVuSans-20" transform="translate(473.095703 0)"/>
     <use xlink:href="#DejaVuSans-62" transform="translate(504.882812 0)"/>
     <use xlink:href="#DejaVuSans-79" transform="translate(568.359375 0)"/>
     <use xlink:href="#DejaVuSans-20" transform="translate(627.539062 0)"/>
     <use xlink:href="#DejaVuSans-41" transform="translate(659.326172 0)"/>
     <use xlink:href="#DejaVuSans-72" transform="translate(727.734375 0)"/>
     <use xlink:href="#DejaVuSans-6f" transform="translate(766.597656 0)"/>
     <use xlink:href="#DejaVuSans-75" transform="translate(827.779297 0)"/>
     <use xlink:href="#DejaVuSans-73" transform="translate(891.158203 0)"/>
     <use xlink:href="#DejaVuSans-61" transform="translate(943.257812 0)"/>
     <use xlink:href="#DejaVuSans-6c" transform="translate(1004.537109 0)"/>
     <use xlink:href="#DejaVuSans-20" transform="translate(1032.320312 0)"/>
     <use xlink:href="#DejaVuSans-51" transform="translate(1064.107422 0)"/>
     <use xlink:href="#DejaVuSans-75" transform="translate(1142.818359 0)"/>
     <use xlink:href="#DejaVuSans-61" transform="translate(1206.197266 0)"/>
     <use xlink:href="#DejaVuSans-72" transform="translate(1267.476562 0)"/>
     <use xlink:href="#DejaVuSans-74" transform="translate(1308.589844 0)"/>
     <use xlink:href="#DejaVuSans-69" transform="translate(1347.798828 0)"/>
     <use xlink:href="#DejaVuSans-6c" transform="translate(1375.582031 0)"/>
     <use xlink:href="#DejaVuSans-65" transform="translate(1403.365234 0)"/>
    </g>
   </g>
  </g>
  <g id="axes_3">
   <g id="patch_12">
    <path d="M 521.318919 240.768 
L 698.4 240.768 
L 698.4 19.152 
L 521.318919 19.152 
z
" style="fill: #ffffff"/>
   </g>
   <g id="matplotlib.axis_5">
    <g id="xtick_9">
     <g id="line2d_30">
      <g>
       <use xlink:href="#ma5f8a9f8be" x="565.589189" y="240.768" style="stroke: #000000; stroke-width: 0.6"/>
      </g>
     </g>
     <g id="text_35">
      <!-- Male -->
      <g transform="translate(553.745439 251.866437) scale(0.1 -0.1)">
       <use xlink:href="#DejaVuSans-4d"/>
       <use xlink:href="#DejaVuSans-61" transform="translate(86.279297 0)"/>
       <use xlink:href="#DejaVuSans-6c" transform="translate(147.558594 0)"/>
       <use xlink:href="#DejaVuSans-65" transform="translate(175.341797 0)"/>
      </g>
      <!-- (n=19) -->
      <g transform="translate(547.966533 263.06425) scale(0.1 -0.1)">
       <defs>
        <path id="DejaVuSans-39" d="M 703 97 
L 703 672 
Q 941 559 1184 500 
Q 1428 441 1663 441 
Q 2288 441 2617 861 
Q 2947 1281 2994 2138 
Q 2813 1869 2534 1725 
Q 2256 1581 1919 1581 
Q 1219 1581 811 2004 
Q 403 2428 403 3163 
Q 403 3881 828 4315 
Q 1253 4750 1959 4750 
Q 2769 4750 3195 4129 
Q 3622 3509 3622 2328 
Q 3622 1225 3098 567 
Q 2575 -91 1691 -91 
Q 1453 -91 1209 -44 
Q 966 3 703 97 
z
M 1959 2075 
Q 2384 2075 2632 2365 
Q 2881 2656 2881 3163 
Q 2881 3666 2632 3958 
Q 2384 4250 1959 4250 
Q 1534 4250 1286 3958 
Q 1038 3666 1038 3163 
Q 1038 2656 1286 2365 
Q 1534 2075 1959 2075 
z
" transform="scale(0.015625)"/>
       </defs>
       <use xlink:href="#DejaVuSans-28"/>
       <use xlink:href="#DejaVuSans-6e" transform="translate(39.013672 0)"/>
       <use xlink:href="#DejaVuSans-3d" transform="translate(102.392578 0)"/>
       <use xlink:href="#DejaVuSans-31" transform="translate(186.181641 0)"/>
       <use xlink:href="#DejaVuSans-39" transform="translate(249.804688 0)"/>
       <use xlink:href="#DejaVuSans-29" transform="translate(313.427734 0)"/>
      </g>
     </g>
    </g>
    <g id="xtick_10">
     <g id="line2d_31">
      <g>
       <use xlink:href="#ma5f8a9f8be" x="654.12973" y="240.768" style="stroke: #000000; stroke-width: 0.6"/>
      </g>
     </g>
     <g id="text_36">
      <!-- Female -->
      <g transform="translate(636.052386 251.866437) scale(0.1 -0.1)">
       <defs>
        <path id="DejaVuSans-46" d="M 628 4666 
L 3309 4666 
L 3309 4134 
L 1259 4134 
L 1259 2759 
L 3109 2759 
L 3109 2228 
L 1259 2228 
L 1259 0 
L 628 0 
L 628 4666 
z
" transform="scale(0.015625)"/>
        <path id="DejaVuSans-6d" d="M 3328 2828 
Q 3544 3216 3844 3400 
Q 4144 3584 4550 3584 
Q 5097 3584 5394 3201 
Q 5691 2819 5691 2113 
L 5691 0 
L 5113 0 
L 5113 2094 
Q 5113 2597 4934 2840 
Q 4756 3084 4391 3084 
Q 3944 3084 3684 2787 
Q 3425 2491 3425 1978 
L 3425 0 
L 2847 0 
L 2847 2094 
Q 2847 2600 2669 2842 
Q 2491 3084 2119 3084 
Q 1678 3084 1418 2786 
Q 1159 2488 1159 1978 
L 1159 0 
L 581 0 
L 581 3500 
L 1159 3500 
L 1159 2956 
Q 1356 3278 1631 3431 
Q 1906 3584 2284 3584 
Q 2666 3584 2933 3390 
Q 3200 3197 3328 2828 
z
" transform="scale(0.015625)"/>
       </defs>
       <use xlink:href="#DejaVuSans-46"/>
       <use xlink:href="#DejaVuSans-65" transform="translate(52.019531 0)"/>
       <use xlink:href="#DejaVuSans-6d" transform="translate(113.542969 0)"/>
       <use xlink:href="#DejaVuSans-61" transform="translate(210.955078 0)"/>
       <use xlink:href="#DejaVuSans-6c" transform="translate(272.234375 0)"/>
       <use xlink:href="#DejaVuSans-65" transform="translate(300.017578 0)"/>
      </g>
      <!-- (n=24) -->
      <g transform="translate(636.507073 263.06425) scale(0.1 -0.1)">
       <use xlink:href="#DejaVuSans-28"/>
       <use xlink:href="#DejaVuSans-6e" transform="translate(39.013672 0)"/>
       <use xlink:href="#DejaVuSans-3d" transform="translate(102.392578 0)"/>
       <use xlink:href="#DejaVuSans-32" transform="translate(186.181641 0)"/>
       <use xlink:href="#DejaVuSans-34" transform="translate(249.804688 0)"/>
       <use xlink:href="#DejaVuSans-29" transform="translate(313.427734 0)"/>
      </g>
     </g>
    </g>
   </g>
   <g id="matplotlib.axis_6">
    <g id="ytick_19">
     <g id="line2d_32">
      <g>
       <use xlink:href="#m1bc8d05a87" x="521.318919" y="230.694545" style="stroke: #000000; stroke-width: 0.6"/>
      </g>
     </g>
     <g id="text_37">
      <!-- 0.00 -->
      <g transform="translate(495.553294 234.493764) scale(0.1 -0.1)">
       <use xlink:href="#DejaVuSans-30"/>
       <use xlink:href="#DejaVuSans-2e" transform="translate(63.623047 0)"/>
       <use xlink:href="#DejaVuSans-30" transform="translate(95.410156 0)"/>
       <use xlink:href="#DejaVuSans-30" transform="translate(159.033203 0)"/>
      </g>
     </g>
    </g>
    <g id="ytick_20">
     <g id="line2d_33">
      <g>
       <use xlink:href="#m1bc8d05a87" x="521.318919" y="195.427035" style="stroke: #000000; stroke-width: 0.6"/>
      </g>
     </g>
     <g id="text_38">
      <!-- 0.05 -->
      <g transform="translate(495.553294 199.226254) scale(0.1 -0.1)">
       <use xlink:href="#DejaVuSans-30"/>
       <use xlink:href="#DejaVuSans-2e" transform="translate(63.623047 0)"/>
       <use xlink:href="#DejaVuSans-30" transform="translate(95.410156 0)"/>
       <use xlink:href="#DejaVuSans-35" transform="translate(159.033203 0)"/>
      </g>
     </g>
    </g>
    <g id="ytick_21">
     <g id="line2d_34">
      <g>
       <use xlink:href="#m1bc8d05a87" x="521.318919" y="160.159525" style="stroke: #000000; stroke-width: 0.6"/>
      </g>
     </g>
     <g id="text_39">
      <!-- 0.10 -->
      <g transform="translate(495.553294 163.958744) scale(0.1 -0.1)">
       <use xlink:href="#DejaVuSans-30"/>
       <use xlink:href="#DejaVuSans-2e" transform="translate(63.623047 0)"/>
       <use xlink:href="#DejaVuSans-31" transform="translate(95.410156 0)"/>
       <use xlink:href="#DejaVuSans-30" transform="translate(159.033203 0)"/>
      </g>
     </g>
    </g>
    <g id="ytick_22">
     <g id="line2d_35">
      <g>
       <use xlink:href="#m1bc8d05a87" x="521.318919" y="124.892015" style="stroke: #000000; stroke-width: 0.6"/>
      </g>
     </g>
     <g id="text_40">
      <!-- 0.15 -->
      <g transform="translate(495.553294 128.691233) scale(0.1 -0.1)">
       <use xlink:href="#DejaVuSans-30"/>
       <use xlink:href="#DejaVuSans-2e" transform="translate(63.623047 0)"/>
       <use xlink:href="#DejaVuSans-31" transform="translate(95.410156 0)"/>
       <use xlink:href="#DejaVuSans-35" transform="translate(159.033203 0)"/>
      </g>
     </g>
    </g>
    <g id="ytick_23">
     <g id="line2d_36">
      <g>
       <use xlink:href="#m1bc8d05a87" x="521.318919" y="89.624504" style="stroke: #000000; stroke-width: 0.6"/>
      </g>
     </g>
     <g id="text_41">
      <!-- 0.20 -->
      <g transform="translate(495.553294 93.423723) scale(0.1 -0.1)">
       <use xlink:href="#DejaVuSans-30"/>
       <use xlink:href="#DejaVuSans-2e" transform="translate(63.623047 0)"/>
       <use xlink:href="#DejaVuSans-32" transform="translate(95.410156 0)"/>
       <use xlink:href="#DejaVuSans-30" transform="translate(159.033203 0)"/>
      </g>
     </g>
    </g>
    <g id="ytick_24">
     <g id="line2d_37">
      <g>
       <use xlink:href="#m1bc8d05a87" x="521.318919" y="54.356994" style="stroke: #000000; stroke-width: 0.6"/>
      </g>
     </g>
     <g id="text_42">
      <!-- 0.25 -->
      <g transform="translate(495.553294 58.156213) scale(0.1 -0.1)">
       <use xlink:href="#DejaVuSans-30"/>
       <use xlink:href="#DejaVuSans-2e" transform="translate(63.623047 0)"/>
       <use xlink:href="#DejaVuSans-32" transform="translate(95.410156 0)"/>
       <use xlink:href="#DejaVuSans-35" transform="translate(159.033203 0)"/>
      </g>
     </g>
    </g>
    <g id="text_43">
     <!-- Motion Ratio -->
     <g transform="translate(489.473606 161.334219) rotate(-90) scale(0.1 -0.1)">
      <use xlink:href="#DejaVuSans-4d"/>
      <use xlink:href="#DejaVuSans-6f" transform="translate(86.279297 0)"/>
      <use xlink:href="#DejaVuSans-74" transform="translate(147.460938 0)"/>
      <use xlink:href="#DejaVuSans-69" transform="translate(186.669922 0)"/>
      <use xlink:href="#DejaVuSans-6f" transform="translate(214.453125 0)"/>
      <use xlink:href="#DejaVuSans-6e" transform="translate(275.634766 0)"/>
      <use xlink:href="#DejaVuSans-20" transform="translate(339.013672 0)"/>
      <use xlink:href="#DejaVuSans-52" transform="translate(370.800781 0)"/>
      <use xlink:href="#DejaVuSans-61" transform="translate(438.033203 0)"/>
      <use xlink:href="#DejaVuSans-74" transform="translate(499.3125 0)"/>
      <use xlink:href="#DejaVuSans-69" transform="translate(538.521484 0)"/>
      <use xlink:href="#DejaVuSans-6f" transform="translate(566.304688 0)"/>
     </g>
    </g>
   </g>
   <g id="patch_13">
    <path d="M 547.881081 222.639875 
L 583.297297 222.639875 
L 583.297297 186.760617 
L 547.881081 186.760617 
L 547.881081 222.639875 
z
" clip-path="url(#p1b1ff6f8e8)" style="fill: #6b8aaf; opacity: 0.7; stroke: #000000; stroke-linejoin: miter"/>
   </g>
   <g id="line2d_38">
    <path d="M 565.589189 222.639875 
L 565.589189 230.694545 
" clip-path="url(#p1b1ff6f8e8)" style="fill: none; stroke: #000000; stroke-linecap: square"/>
   </g>
   <g id="line2d_39">
    <path d="M 565.589189 186.760617 
L 565.589189 141.128615 
" clip-path="url(#p1b1ff6f8e8)" style="fill: none; stroke: #000000; stroke-linecap: square"/>
   </g>
   <g id="line2d_40">
    <path d="M 556.735135 230.694545 
L 574.443243 230.694545 
" clip-path="url(#p1b1ff6f8e8)" style="fill: none; stroke: #000000; stroke-linecap: square"/>
   </g>
   <g id="line2d_41">
    <path d="M 556.735135 141.128615 
L 574.443243 141.128615 
" clip-path="url(#p1b1ff6f8e8)" style="fill: none; stroke: #000000; stroke-linecap: square"/>
   </g>
   <g id="line2d_42">
    <defs>
     <path id="me8e2b7e95b" d="M 0 3 
C 0.795609 3 1.55874 2.683901 2.12132 2.12132 
C 2.683901 1.55874 3 0.795609 3 0 
C 3 -0.795609 2.683901 -1.55874 2.12132 -2.12132 
C 1.55874 -2.683901 0.795609 -3 0 -3 
C -0.795609 -3 -1.55874 -2.683901 -2.12132 -2.12132 
C -2.683901 -1.55874 -3 -0.795609 -3 0 
C -3 0.795609 -2.683901 1.55874 -2.12132 2.12132 
C -1.55874 2.683901 -0.795609 3 0 3 
z
" style="stroke: #000000"/>
    </defs>
    <g clip-path="url(#p1b1ff6f8e8)">
     <use xlink:href="#me8e2b7e95b" x="565.589189" y="76.591657" style="fill-opacity: 0; stroke: #000000"/>
    </g>
   </g>
   <g id="patch_14">
    <path d="M 636.421622 210.88565 
L 671.837838 210.88565 
L 671.837838 157.536465 
L 636.421622 157.536465 
L 636.421622 210.88565 
z
" clip-path="url(#p1b1ff6f8e8)" style="fill: #c77d8d; opacity: 0.7; stroke: #000000; stroke-linejoin: miter"/>
   </g>
   <g id="line2d_43">
    <path d="M 654.12973 210.88565 
L 654.12973 230.694545 
" clip-path="url(#p1b1ff6f8e8)" style="fill: none; stroke: #000000; stroke-linecap: square"/>
   </g>
   <g id="line2d_44">
    <path d="M 654.12973 157.536465 
L 654.12973 108.496038 
" clip-path="url(#p1b1ff6f8e8)" style="fill: none; stroke: #000000; stroke-linecap: square"/>
   </g>
   <g id="line2d_45">
    <path d="M 645.275676 230.694545 
L 662.983784 230.694545 
" clip-path="url(#p1b1ff6f8e8)" style="fill: none; stroke: #000000; stroke-linecap: square"/>
   </g>
   <g id="line2d_46">
    <path d="M 645.275676 108.496038 
L 662.983784 108.496038 
" clip-path="url(#p1b1ff6f8e8)" style="fill: none; stroke: #000000; stroke-linecap: square"/>
   </g>
   <g id="line2d_47">
    <g clip-path="url(#p1b1ff6f8e8)">
     <use xlink:href="#me8e2b7e95b" x="654.12973" y="29.225455" style="fill-opacity: 0; stroke: #000000"/>
     <use xlink:href="#me8e2b7e95b" x="654.12973" y="34.322965" style="fill-opacity: 0; stroke: #000000"/>
    </g>
   </g>
   <g id="line2d_48">
    <path d="M 547.881081 202.675568 
L 583.297297 202.675568 
" clip-path="url(#p1b1ff6f8e8)" style="fill: none; stroke: #444444; stroke-width: 1.2"/>
   </g>
   <g id="line2d_49">
    <path d="M 636.421622 186.559385 
L 671.837838 186.559385 
" clip-path="url(#p1b1ff6f8e8)" style="fill: none; stroke: #444444; stroke-width: 1.2"/>
   </g>
   <g id="patch_15">
    <path d="M 521.318919 240.768 
L 521.318919 19.152 
" style="fill: none; stroke: #000000; stroke-width: 0.8; stroke-linejoin: miter; stroke-linecap: square"/>
   </g>
   <g id="patch_16">
    <path d="M 521.318919 240.768 
L 698.4 240.768 
" style="fill: none; stroke: #000000; stroke-width: 0.8; stroke-linejoin: miter; stroke-linecap: square"/>
   </g>
   <g id="text_44">
    <!-- p = 0.11 -->
    <g transform="translate(590.351959 37.071394) scale(0.09 -0.09)">
     <use xlink:href="#DejaVuSans-70"/>
     <use xlink:href="#DejaVuSans-20" transform="translate(63.476562 0)"/>
     <use xlink:href="#DejaVuSans-3d" transform="translate(95.263672 0)"/>
     <use xlink:href="#DejaVuSans-20" transform="translate(179.052734 0)"/>
     <use xlink:href="#DejaVuSans-30" transform="translate(210.839844 0)"/>
     <use xlink:href="#DejaVuSans-2e" transform="translate(274.462891 0)"/>
     <use xlink:href="#DejaVuSans-31" transform="translate(306.25 0)"/>
     <use xlink:href="#DejaVuSans-31" transform="translate(369.873047 0)"/>
    </g>
   </g>
   <g id="text_45">
    <!-- C: Motion by Gender -->
    <g transform="translate(548.115709 13.152) scale(0.12 -0.12)">
     <defs>
      <path id="DejaVuSans-43" d="M 4122 4306 
L 4122 3641 
Q 3803 3938 3442 4084 
Q 3081 4231 2675 4231 
Q 1875 4231 1450 3742 
Q 1025 3253 1025 2328 
Q 1025 1406 1450 917 
Q 1875 428 2675 428 
Q 3081 428 3442 575 
Q 3803 722 4122 1019 
L 4122 359 
Q 3791 134 3420 21 
Q 3050 -91 2638 -91 
Q 1578 -91 968 557 
Q 359 1206 359 2328 
Q 359 3453 968 4101 
Q 1578 4750 2638 4750 
Q 3056 4750 3426 4639 
Q 3797 4528 4122 4306 
z
" transform="scale(0.015625)"/>
      <path id="DejaVuSans-47" d="M 3809 666 
L 3809 1919 
L 2778 1919 
L 2778 2438 
L 4434 2438 
L 4434 434 
Q 4069 175 3628 42 
Q 3188 -91 2688 -91 
Q 1594 -91 976 548 
Q 359 1188 359 2328 
Q 359 3472 976 4111 
Q 1594 4750 2688 4750 
Q 3144 4750 3555 4637 
Q 3966 4525 4313 4306 
L 4313 3634 
Q 3963 3931 3569 4081 
Q 3175 4231 2741 4231 
Q 1884 4231 1454 3753 
Q 1025 3275 1025 2328 
Q 1025 1384 1454 906 
Q 1884 428 2741 428 
Q 3075 428 3337 486 
Q 3600 544 3809 666 
z
" transform="scale(0.015625)"/>
      <path id="DejaVuSans-64" d="M 2906 2969 
L 2906 4863 
L 3481 4863 
L 3481 0 
L 2906 0 
L 2906 525 
Q 2725 213 2448 61 
Q 2172 -91 1784 -91 
Q 1150 -91 751 415 
Q 353 922 353 1747 
Q 353 2572 751 3078 
Q 1150 3584 1784 3584 
Q 2172 3584 2448 3432 
Q 2725 3281 2906 2969 
z
M 947 1747 
Q 947 1113 1208 752 
Q 1469 391 1925 391 
Q 2381 391 2643 752 
Q 2906 1113 2906 1747 
Q 2906 2381 2643 2742 
Q 2381 3103 1925 3103 
Q 1469 3103 1208 2742 
Q 947 2381 947 1747 
z
" transform="scale(0.015625)"/>
     </defs>
     <use xlink:href="#DejaVuSans-43"/>
     <use xlink:href="#DejaVuSans-3a" transform="translate(69.824219 0)"/>
     <use xlink:href="#DejaVuSans-20" transform="translate(103.515625 0)"/>
     <use xlink:href="#DejaVuSans-4d" transform="translate(135.302734 0)"/>
     <use xlink:href="#DejaVuSans-6f" transform="translate(221.582031 0)"/>
     <use xlink:href="#DejaVuSans-74" transform="translate(282.763672 0)"/>
     <use xlink:href="#DejaVuSans-69" transform="translate(321.972656 0)"/>
     <use xlink:href="#DejaVuSans-6f" transform="translate(349.755859 0)"/>
     <use xlink:href="#DejaVuSans-6e" transform="translate(410.9375 0)"/>
     <use xlink:href="#DejaVuSans-20" transform="translate(474.316406 0)"/>
     <use xlink:href="#DejaVuSans-62" transform="translate(506.103516 0)"/>
     <use xlink:href="#DejaVuSans-79" transform="translate(569.580078 0)"/>
     <use xlink:href="#DejaVuSans-20" transform="translate(628.759766 0)"/>
     <use xlink:href="#DejaVuSans-47" transform="translate(660.546875 0)"/>
     <use xlink:href="#DejaVuSans-65" transform="translate(738.037109 0)"/>
     <use xlink:href="#DejaVuSans-6e" transform="translate(799.560547 0)"/>
     <use xlink:href="#DejaVuSans-64" transform="translate(862.939453 0)"/>
     <use xlink:href="#DejaVuSans-65" transform="translate(926.416016 0)"/>
     <use xlink:href="#DejaVuSans-72" transform="translate(987.939453 0)"/>
    </g>
   </g>
  </g>
 </g>
 <defs>
  <clipPath id="p0d3c2b1aa7">
   <rect x="43.2" y="19.152" width="177.081081" height="221.616"/>
  </clipPath>
  <clipPath id="p4ad34894bd">
   <rect x="282.259459" y="19.152" width="177.081081" height="221.616"/>
  </clipPath>
  <clipPath id="p1b1ff6f8e8">
   <rect x="521.318919" y="19.152" width="177.081081" height="221.616"/>
  </clipPath>
 </defs>
</svg>
